<svg xmlns="http://www.w3.org/2000/svg" width="284" height="382">
<rect x="69.0" y="246.9" width="44.1" height="47.6" stroke="black" fill="none"/>
<rect x="69.0" y="252.0" width="44.3" height="46.7" stroke="black" fill="none"/>
<rect x="70.6" y="256.1" width="46.7" height="46.0" stroke="black" fill="none"/>
<rect x="74.7" y="259.4" width="47.6" height="44.4" stroke="black" fill="none"/>
<rect x="79.6" y="260.6" width="47.2" height="43.3" stroke="black" fill="none"/>
<rect x="84.2" y="256.7" width="46.4" height="46.5" stroke="black" fill="none"/>
<rect x="87.9" y="82.9" width="141.1" height="216.4" stroke="black" fill="none"/>
<rect x="186.4" y="77.9" width="43.9" height="47.7" stroke="black" fill="none"/>
<rect x="185.8" y="73.6" width="44.6" height="46.9" stroke="black" fill="none"/>
<rect x="181.4" y="70.2" width="47.0" height="46.0" stroke="black" fill="none"/>
<rect x="176.8" y="68.5" width="47.2" height="44.3" stroke="black" fill="none"/>
<rect x="172.6" y="68.5" width="46.9" height="43.4" stroke="black" fill="none"/>
<rect x="168.9" y="69.2" width="46.2" height="46.6" stroke="black" fill="none"/>
<rect x="70.4" y="73.2" width="141.1" height="216.4" stroke="black" fill="none"/>
<rect x="55.0" y="68.7" width="64.8" height="48.8" stroke="black" fill="none"/>
<rect x="38.1" y="74.9" width="59.5" height="59.6" stroke="black" fill="none"/>
<rect x="31.4" y="91.8" width="49.3" height="68.0" stroke="black" fill="none"/>
<rect x="31.4" y="117.2" width="49.7" height="70.9" stroke="black" fill="none"/>
<rect x="38.5" y="145.5" width="60.0" height="59.0" stroke="black" fill="none"/>
<rect x="55.9" y="161.9" width="64.4" height="47.9" stroke="black" fill="none"/>
<rect x="77.7" y="161.4" width="63.6" height="48.4" stroke="black" fill="none"/>
<rect x="98.6" y="144.9" width="59.5" height="59.2" stroke="black" fill="none"/>
<rect x="115.5" y="118.4" width="49.6" height="69.0" stroke="black" fill="none"/>
<rect x="116.0" y="92.0" width="49.1" height="69.1" stroke="black" fill="none"/>
<rect x="99.5" y="74.8" width="59.1" height="59.8" stroke="black" fill="none"/>
<rect x="77.2" y="68.7" width="64.9" height="48.7" stroke="black" fill="none"/>
<rect x="77.2" y="68.7" width="42.6" height="42.6" stroke="black" fill="none"/>
<rect x="68.3" y="148.7" width="51.8" height="47.1" stroke="black" fill="none"/>
<rect x="61.7" y="135.8" width="49.2" height="55.5" stroke="black" fill="none"/>
<rect x="59.2" y="115.4" width="45.1" height="63.0" stroke="black" fill="none"/>
<rect x="59.2" y="97.2" width="45.2" height="60.9" stroke="black" fill="none"/>
<rect x="61.7" y="86.3" width="49.0" height="53.5" stroke="black" fill="none"/>
<rect x="68.2" y="82.7" width="51.2" height="46.2" stroke="black" fill="none"/>
<rect x="76.7" y="82.7" width="51.5" height="46.2" stroke="black" fill="none"/>
<rect x="85.6" y="86.2" width="49.2" height="54.4" stroke="black" fill="none"/>
<rect x="92.1" y="98.1" width="45.2" height="64.5" stroke="black" fill="none"/>
<rect x="92.4" y="119.9" width="44.9" height="60.3" stroke="black" fill="none"/>
<rect x="86.4" y="137.6" width="48.7" height="54.2" stroke="black" fill="none"/>
<rect x="77.4" y="149.2" width="51.5" height="46.6" stroke="black" fill="none"/>
<rect x="77.4" y="153.2" width="42.6" height="42.6" stroke="black" fill="none"/>
<rect x="158.5" y="162.7" width="64.8" height="48.8" stroke="black" fill="none"/>
<rect x="141.6" y="168.9" width="59.5" height="59.6" stroke="black" fill="none"/>
<rect x="134.9" y="185.8" width="49.3" height="68.0" stroke="black" fill="none"/>
<rect x="134.9" y="211.2" width="49.7" height="70.9" stroke="black" fill="none"/>
<rect x="142.0" y="239.5" width="60.0" height="59.0" stroke="black" fill="none"/>
<rect x="159.4" y="255.9" width="64.4" height="47.9" stroke="black" fill="none"/>
<rect x="181.2" y="255.4" width="63.6" height="48.4" stroke="black" fill="none"/>
<rect x="202.1" y="238.9" width="59.5" height="59.2" stroke="black" fill="none"/>
<rect x="219.0" y="212.4" width="49.6" height="69.0" stroke="black" fill="none"/>
<rect x="219.5" y="186.0" width="49.1" height="69.1" stroke="black" fill="none"/>
<rect x="203.0" y="168.8" width="59.1" height="59.8" stroke="black" fill="none"/>
<rect x="180.7" y="162.7" width="64.9" height="48.7" stroke="black" fill="none"/>
<rect x="180.7" y="162.7" width="42.6" height="42.6" stroke="black" fill="none"/>
<rect x="171.8" y="242.7" width="51.8" height="47.1" stroke="black" fill="none"/>
<rect x="165.2" y="229.8" width="49.2" height="55.5" stroke="black" fill="none"/>
<rect x="162.7" y="209.4" width="45.1" height="63.0" stroke="black" fill="none"/>
<rect x="162.7" y="191.2" width="45.2" height="60.9" stroke="black" fill="none"/>
<rect x="165.2" y="180.3" width="49.0" height="53.5" stroke="black" fill="none"/>
<rect x="171.7" y="176.7" width="51.2" height="46.2" stroke="black" fill="none"/>
<rect x="180.2" y="176.7" width="51.5" height="46.2" stroke="black" fill="none"/>
<rect x="189.1" y="180.2" width="49.2" height="54.4" stroke="black" fill="none"/>
<rect x="195.6" y="192.1" width="45.2" height="64.5" stroke="black" fill="none"/>
<rect x="195.9" y="213.9" width="44.9" height="60.3" stroke="black" fill="none"/>
<rect x="189.9" y="231.6" width="48.7" height="54.2" stroke="black" fill="none"/>
<rect x="180.9" y="243.2" width="51.5" height="46.6" stroke="black" fill="none"/>
<rect x="180.9" y="247.2" width="42.6" height="42.6" stroke="black" fill="none"/>
</svg>