<svg xmlns="http://www.w3.org/2000/svg" width="284" height="382">
<rect x="116.1" y="150.7" width="42.6" height="72.9" stroke="black" fill="none"/>
<rect x="85.8" y="180.9" width="72.9" height="42.6" stroke="black" fill="none"/>
<rect x="78.6" y="180.9" width="49.8" height="43.5" stroke="black" fill="none"/>
<rect x="74.4" y="181.8" width="46.8" height="46.2" stroke="black" fill="none"/>
<rect x="73.1" y="185.3" width="44.0" height="50.5" stroke="black" fill="none"/>
<rect x="73.1" y="193.2" width="44.1" height="51.1" stroke="black" fill="none"/>
<rect x="74.5" y="201.7" width="46.9" height="46.1" stroke="black" fill="none"/>
<rect x="78.8" y="205.2" width="49.6" height="43.3" stroke="black" fill="none"/>
<rect x="85.8" y="205.9" width="72.9" height="42.6" stroke="black" fill="none"/>
<rect x="116.1" y="205.9" width="42.6" height="72.6" stroke="black" fill="none"/>
<rect x="116.1" y="235.9" width="43.5" height="49.8" stroke="black" fill="none"/>
<rect x="116.9" y="243.1" width="46.2" height="46.8" stroke="black" fill="none"/>
<rect x="120.5" y="247.3" width="50.5" height="44.0" stroke="black" fill="none"/>
<rect x="128.3" y="247.2" width="51.1" height="44.1" stroke="black" fill="none"/>
<rect x="136.8" y="242.9" width="46.1" height="46.9" stroke="black" fill="none"/>
<rect x="140.4" y="235.9" width="43.3" height="49.6" stroke="black" fill="none"/>
<rect x="141.1" y="205.9" width="42.6" height="72.6" stroke="black" fill="none"/>
<rect x="141.1" y="205.9" width="72.6" height="42.6" stroke="black" fill="none"/>
<rect x="171.1" y="205.1" width="49.6" height="43.4" stroke="black" fill="none"/>
<rect x="178.1" y="201.3" width="47.2" height="46.4" stroke="black" fill="none"/>
<rect x="182.7" y="192.7" width="44.3" height="51.3" stroke="black" fill="none"/>
<rect x="182.8" y="185.0" width="44.2" height="50.3" stroke="black" fill="none"/>
<rect x="178.3" y="181.7" width="47.1" height="45.9" stroke="black" fill="none"/>
<rect x="171.1" y="180.9" width="49.8" height="43.3" stroke="black" fill="none"/>
<rect x="141.1" y="180.9" width="72.6" height="42.6" stroke="black" fill="none"/>
<rect x="141.1" y="150.7" width="42.6" height="72.9" stroke="black" fill="none"/>
<rect x="140.4" y="143.7" width="43.3" height="49.6" stroke="black" fill="none"/>
<rect x="136.8" y="139.1" width="46.1" height="47.2" stroke="black" fill="none"/>
<rect x="128.3" y="137.4" width="51.1" height="44.3" stroke="black" fill="none"/>
<rect x="120.5" y="137.4" width="50.5" height="44.2" stroke="black" fill="none"/>
<rect x="116.9" y="139.0" width="46.2" height="47.1" stroke="black" fill="none"/>
<rect x="116.1" y="143.5" width="43.5" height="49.8" stroke="black" fill="none"/>
<rect x="116.1" y="150.7" width="42.6" height="42.6" stroke="black" fill="none"/>
</svg>