<svg xmlns="http://www.w3.org/2000/svg" width="284" height="382">
<rect x="73.9" y="85.9" width="42.6" height="115.6" stroke="black" fill="none"/>
<rect x="73.9" y="158.9" width="43.5" height="47.9" stroke="black" fill="none"/>
<rect x="74.9" y="164.2" width="45.4" height="45.6" stroke="black" fill="none"/>
<rect x="77.7" y="167.2" width="47.4" height="43.6" stroke="black" fill="none"/>
<rect x="82.4" y="168.2" width="49.9" height="42.6" stroke="black" fill="none"/>
<rect x="89.7" y="160.8" width="50.7" height="50.0" stroke="black" fill="none"/>
<rect x="97.7" y="155.8" width="52.1" height="47.6" stroke="black" fill="none"/>
<rect x="107.2" y="153.9" width="54.8" height="44.5" stroke="black" fill="none"/>
<rect x="119.4" y="153.9" width="63.7" height="49.6" stroke="black" fill="none"/>
<rect x="140.5" y="160.9" width="53.8" height="58.6" stroke="black" fill="none"/>
<rect x="151.7" y="176.9" width="45.9" height="60.1" stroke="black" fill="none"/>
<rect x="150.4" y="194.4" width="47.2" height="67.2" stroke="black" fill="none"/>
<rect x="137.6" y="219.1" width="55.4" height="58.7" stroke="black" fill="none"/>
<rect x="118.2" y="235.2" width="62.0" height="48.4" stroke="black" fill="none"/>
<rect x="102.1" y="237.5" width="58.7" height="46.0" stroke="black" fill="none"/>
<rect x="90.8" y="228.1" width="53.9" height="52.1" stroke="black" fill="none"/>
<rect x="83.7" y="213.7" width="49.7" height="57.0" stroke="black" fill="none"/>
<rect x="81.5" y="209.1" width="44.8" height="47.2" stroke="black" fill="none"/>
<rect x="78.2" y="206.8" width="45.9" height="44.9" stroke="black" fill="none"/>
<rect x="72.7" y="206.2" width="48.1" height="43.2" stroke="black" fill="none"/>
<rect x="67.6" y="206.2" width="47.7" height="43.2" stroke="black" fill="none"/>
<rect x="64.6" y="206.8" width="45.6" height="44.7" stroke="black" fill="none"/>
<rect x="63.7" y="208.9" width="43.6" height="46.7" stroke="black" fill="none"/>
<rect x="63.7" y="212.9" width="43.2" height="50.9" stroke="black" fill="none"/>
<rect x="64.2" y="221.3" width="44.7" height="51.2" stroke="black" fill="none"/>
<rect x="66.3" y="229.9" width="47.0" height="53.9" stroke="black" fill="none"/>
<rect x="70.7" y="241.2" width="53.0" height="51.1" stroke="black" fill="none"/>
<rect x="81.1" y="249.7" width="59.7" height="50.6" stroke="black" fill="none"/>
<rect x="98.2" y="257.7" width="68.4" height="46.1" stroke="black" fill="none"/>
<rect x="123.9" y="254.4" width="75.0" height="49.4" stroke="black" fill="none"/>
<rect x="156.4" y="232.2" width="69.0" height="64.9" stroke="black" fill="none"/>
<rect x="182.8" y="191.4" width="53.5" height="83.4" stroke="black" fill="none"/>
<rect x="183.8" y="155.8" width="52.5" height="78.2" stroke="black" fill="none"/>
<rect x="159.4" y="135.3" width="67.0" height="63.2" stroke="black" fill="none"/>
<rect x="128.7" y="128.7" width="73.4" height="49.2" stroke="black" fill="none"/>
<rect x="115.2" y="128.7" width="56.1" height="43.9" stroke="black" fill="none"/>
<rect x="103.6" y="130.0" width="54.2" height="46.1" stroke="black" fill="none"/>
<rect x="94.4" y="133.4" width="51.8" height="47.9" stroke="black" fill="none"/>
<rect x="94.4" y="103.7" width="42.6" height="77.6" stroke="black" fill="none"/>
<rect x="94.4" y="103.7" width="103.6" height="42.6" stroke="black" fill="none"/>
<rect x="155.4" y="102.7" width="48.9" height="43.6" stroke="black" fill="none"/>
<rect x="161.7" y="99.2" width="47.2" height="46.1" stroke="black" fill="none"/>
<rect x="166.3" y="92.7" width="46.7" height="49.1" stroke="black" fill="none"/>
<rect x="170.4" y="75.9" width="51.1" height="59.4" stroke="black" fill="none"/>
<rect x="178.9" y="69.8" width="43.7" height="48.7" stroke="black" fill="none"/>
<rect x="176.3" y="67.3" width="46.3" height="45.2" stroke="black" fill="none"/>
<rect x="169.7" y="67.3" width="49.2" height="44.0" stroke="black" fill="none"/>
<rect x="164.4" y="68.7" width="47.9" height="45.1" stroke="black" fill="none"/>
<rect x="87.7" y="71.2" width="119.4" height="42.6" stroke="black" fill="none"/>
<rect x="79.3" y="71.2" width="51.0" height="44.7" stroke="black" fill="none"/>
<rect x="75.1" y="73.2" width="46.8" height="47.9" stroke="black" fill="none"/>
<rect x="73.9" y="78.6" width="43.8" height="50.0" stroke="black" fill="none"/>
<rect x="73.9" y="85.9" width="42.6" height="42.6" stroke="black" fill="none"/>
</svg>