<svg xmlns="http://www.w3.org/2000/svg" width="284" height="382">
<rect x="100.4" y="249.7" width="84.4" height="54.1" stroke="black" fill="none"/>
<rect x="142.2" y="215.3" width="81.2" height="77.1" stroke="black" fill="none"/>
<rect x="180.8" y="157.7" width="59.6" height="100.2" stroke="black" fill="none"/>
<rect x="187.4" y="105.9" width="52.9" height="94.4" stroke="black" fill="none"/>
<rect x="161.1" y="77.5" width="68.9" height="71.0" stroke="black" fill="none"/>
<rect x="125.7" y="68.7" width="78.1" height="51.4" stroke="black" fill="none"/>
<rect x="91.6" y="68.7" width="76.7" height="52.2" stroke="black" fill="none"/>
<rect x="68.3" y="78.2" width="65.9" height="67.7" stroke="black" fill="none"/>
<rect x="59.7" y="103.3" width="51.2" height="77.0" stroke="black" fill="none"/>
<rect x="59.7" y="137.7" width="51.3" height="76.6" stroke="black" fill="none"/>
<rect x="68.4" y="171.7" width="65.2" height="65.7" stroke="black" fill="none"/>
<rect x="91.0" y="194.7" width="73.8" height="51.1" stroke="black" fill="none"/>
<rect x="122.2" y="201.9" width="54.8" height="43.9" stroke="black" fill="none"/>
<rect x="134.4" y="198.3" width="53.2" height="46.2" stroke="black" fill="none"/>
<rect x="145.0" y="192.9" width="51.8" height="47.9" stroke="black" fill="none"/>
<rect x="141.1" y="192.9" width="55.7" height="68.1" stroke="black" fill="none"/>
<rect x="121.8" y="218.4" width="61.9" height="58.4" stroke="black" fill="none"/>
<rect x="98.7" y="234.2" width="65.7" height="50.9" stroke="black" fill="none"/>
<rect x="94.5" y="242.4" width="46.8" height="44.2" stroke="black" fill="none"/>
<rect x="91.8" y="244.0" width="45.2" height="45.8" stroke="black" fill="none"/>
<rect x="90.9" y="247.1" width="43.5" height="48.2" stroke="black" fill="none"/>
<rect x="90.9" y="252.7" width="43.7" height="47.8" stroke="black" fill="none"/>
<rect x="92.1" y="257.9" width="45.9" height="45.2" stroke="black" fill="none"/>
<rect x="95.3" y="260.5" width="47.7" height="43.3" stroke="black" fill="none"/>
<rect x="100.4" y="261.2" width="42.6" height="42.6" stroke="black" fill="none"/>
<rect x="110.6" y="177.3" width="57.5" height="47.8" stroke="black" fill="none"/>
<rect x="99.5" y="161.7" width="53.7" height="58.2" stroke="black" fill="none"/>
<rect x="95.2" y="134.7" width="47.0" height="69.6" stroke="black" fill="none"/>
<rect x="95.2" y="109.4" width="46.5" height="67.9" stroke="black" fill="none"/>
<rect x="99.0" y="94.0" width="53.5" height="58.1" stroke="black" fill="none"/>
<rect x="109.9" y="88.7" width="59.6" height="47.9" stroke="black" fill="none"/>
<rect x="126.9" y="88.7" width="57.2" height="47.2" stroke="black" fill="none"/>
<rect x="141.5" y="93.2" width="53.3" height="58.0" stroke="black" fill="none"/>
<rect x="152.2" y="108.7" width="48.4" height="71.7" stroke="black" fill="none"/>
<rect x="157.7" y="136.4" width="42.9" height="43.9" stroke="black" fill="none"/>
<rect x="152.7" y="136.4" width="47.6" height="70.6" stroke="black" fill="none"/>
<rect x="139.9" y="164.4" width="55.4" height="56.8" stroke="black" fill="none"/>
<rect x="125.4" y="178.6" width="57.1" height="46.4" stroke="black" fill="none"/>
<rect x="125.4" y="182.4" width="42.6" height="42.6" stroke="black" fill="none"/>
</svg>