<svg xmlns="http://www.w3.org/2000/svg" width="284" height="382">
<rect x="128.8" y="166.9" width="54.2" height="45.4" stroke="black" fill="none"/>
<rect x="140.4" y="159.6" width="51.0" height="49.9" stroke="black" fill="none"/>
<rect x="148.8" y="149.2" width="45.9" height="53.0" stroke="black" fill="none"/>
<rect x="148.8" y="138.8" width="45.9" height="53.0" stroke="black" fill="none"/>
<rect x="140.4" y="131.5" width="51.0" height="49.9" stroke="black" fill="none"/>
<rect x="128.8" y="128.7" width="54.2" height="45.4" stroke="black" fill="none"/>
<rect x="116.9" y="128.7" width="54.5" height="45.4" stroke="black" fill="none"/>
<rect x="108.5" y="131.5" width="51.0" height="49.9" stroke="black" fill="none"/>
<rect x="105.3" y="138.8" width="45.8" height="53.0" stroke="black" fill="none"/>
<rect x="105.3" y="149.2" width="45.8" height="53.0" stroke="black" fill="none"/>
<rect x="108.5" y="159.6" width="51.0" height="49.9" stroke="black" fill="none"/>
<rect x="116.9" y="166.9" width="54.5" height="45.4" stroke="black" fill="none"/>
<rect x="128.8" y="169.7" width="42.6" height="42.6" stroke="black" fill="none"/>
<rect x="128.8" y="258.4" width="54.2" height="45.4" stroke="black" fill="none"/>
<rect x="140.4" y="251.1" width="51.0" height="49.9" stroke="black" fill="none"/>
<rect x="148.8" y="240.7" width="45.9" height="53.0" stroke="black" fill="none"/>
<rect x="148.8" y="230.3" width="45.9" height="53.0" stroke="black" fill="none"/>
<rect x="140.4" y="223.0" width="51.0" height="49.9" stroke="black" fill="none"/>
<rect x="128.8" y="220.2" width="54.2" height="45.4" stroke="black" fill="none"/>
<rect x="116.9" y="220.2" width="54.5" height="45.4" stroke="black" fill="none"/>
<rect x="108.5" y="223.0" width="51.0" height="49.9" stroke="black" fill="none"/>
<rect x="105.3" y="230.3" width="45.8" height="53.0" stroke="black" fill="none"/>
<rect x="105.3" y="240.7" width="45.8" height="53.0" stroke="black" fill="none"/>
<rect x="108.5" y="251.1" width="51.0" height="49.9" stroke="black" fill="none"/>
<rect x="116.9" y="258.4" width="54.5" height="45.4" stroke="black" fill="none"/>
<rect x="128.8" y="261.2" width="42.6" height="42.6" stroke="black" fill="none"/>
</svg>