<svg xmlns="http://www.w3.org/2000/svg" width="284" height="382">
<rect x="138.8" y="246.7" width="52.0" height="45.6" stroke="black" fill="none"/>
<rect x="129.1" y="249.7" width="52.3" height="44.2" stroke="black" fill="none"/>
<rect x="117.2" y="251.2" width="54.5" height="43.1" stroke="black" fill="none"/>
<rect x="84.6" y="244.0" width="75.2" height="50.3" stroke="black" fill="none"/>
<rect x="56.7" y="219.7" width="70.5" height="66.9" stroke="black" fill="none"/>
<rect x="44.7" y="177.2" width="54.6" height="85.2" stroke="black" fill="none"/>
<rect x="44.7" y="138.7" width="52.1" height="81.1" stroke="black" fill="none"/>
<rect x="54.2" y="108.0" width="71.4" height="73.4" stroke="black" fill="none"/>
<rect x="83.0" y="95.7" width="90.3" height="54.9" stroke="black" fill="none"/>
<rect x="130.7" y="95.7" width="90.5" height="54.2" stroke="black" fill="none"/>
<rect x="178.6" y="107.2" width="72.6" height="70.8" stroke="black" fill="none"/>
<rect x="208.6" y="135.5" width="53.0" height="79.3" stroke="black" fill="none"/>
<rect x="214.6" y="172.2" width="47.0" height="67.7" stroke="black" fill="none"/>
<rect x="204.5" y="197.3" width="52.7" height="57.7" stroke="black" fill="none"/>
<rect x="193.2" y="212.4" width="54.0" height="47.7" stroke="black" fill="none"/>
<rect x="184.5" y="215.7" width="51.3" height="44.3" stroke="black" fill="none"/>
<rect x="178.9" y="210.0" width="48.2" height="48.3" stroke="black" fill="none"/>
<rect x="176.9" y="199.4" width="44.6" height="53.2" stroke="black" fill="none"/>
<rect x="176.9" y="159.7" width="42.6" height="82.4" stroke="black" fill="none"/>
<rect x="176.9" y="155.5" width="43.5" height="46.8" stroke="black" fill="none"/>
<rect x="177.8" y="152.9" width="44.9" height="45.2" stroke="black" fill="none"/>
<rect x="180.1" y="151.2" width="46.0" height="44.3" stroke="black" fill="none"/>
<rect x="183.4" y="149.4" width="47.1" height="44.4" stroke="black" fill="none"/>
<rect x="187.9" y="148.4" width="45.1" height="43.6" stroke="black" fill="none"/>
<rect x="190.5" y="147.1" width="44.4" height="43.9" stroke="black" fill="none"/>
<rect x="192.3" y="144.9" width="43.3" height="44.8" stroke="black" fill="none"/>
<rect x="192.9" y="143.2" width="42.6" height="44.4" stroke="black" fill="none"/>
<rect x="192.6" y="140.6" width="43.0" height="45.2" stroke="black" fill="none"/>
<rect x="191.4" y="138.7" width="43.8" height="44.5" stroke="black" fill="none"/>
<rect x="189.2" y="137.4" width="44.8" height="43.9" stroke="black" fill="none"/>
<rect x="165.9" y="129.2" width="65.9" height="50.9" stroke="black" fill="none"/>
<rect x="163.8" y="128.5" width="44.7" height="43.3" stroke="black" fill="none"/>
<rect x="161.6" y="128.1" width="44.9" height="43.1" stroke="black" fill="none"/>
<rect x="159.4" y="127.9" width="44.7" height="42.8" stroke="black" fill="none"/>
<rect x="157.0" y="127.9" width="45.0" height="42.8" stroke="black" fill="none"/>
<rect x="154.8" y="128.1" width="44.9" height="43.5" stroke="black" fill="none"/>
<rect x="152.7" y="129.0" width="44.7" height="44.8" stroke="black" fill="none"/>
<rect x="150.4" y="131.2" width="44.9" height="46.1" stroke="black" fill="none"/>
<rect x="150.2" y="134.7" width="42.9" height="42.9" stroke="black" fill="none"/>
<rect x="149.9" y="135.0" width="42.9" height="43.0" stroke="black" fill="none"/>
<rect x="149.7" y="135.4" width="42.9" height="42.9" stroke="black" fill="none"/>
<rect x="142.3" y="130.9" width="50.0" height="47.4" stroke="black" fill="none"/>
<rect x="132.6" y="127.5" width="52.3" height="46.0" stroke="black" fill="none"/>
<rect x="119.7" y="126.2" width="55.5" height="43.9" stroke="black" fill="none"/>
<rect x="95.3" y="126.2" width="67.0" height="49.3" stroke="black" fill="none"/>
<rect x="76.9" y="132.8" width="61.0" height="60.9" stroke="black" fill="none"/>
<rect x="69.7" y="151.1" width="49.9" height="69.9" stroke="black" fill="none"/>
<rect x="69.7" y="178.4" width="50.1" height="70.1" stroke="black" fill="none"/>
<rect x="77.2" y="205.9" width="61.6" height="59.9" stroke="black" fill="none"/>
<rect x="96.2" y="223.2" width="67.6" height="48.6" stroke="black" fill="none"/>
<rect x="121.2" y="227.5" width="55.1" height="44.3" stroke="black" fill="none"/>
<rect x="133.7" y="223.2" width="52.9" height="46.9" stroke="black" fill="none"/>
<rect x="144.0" y="217.2" width="50.3" height="48.6" stroke="black" fill="none"/>
<rect x="151.7" y="217.2" width="51.4" height="53.9" stroke="black" fill="none"/>
<rect x="160.5" y="228.5" width="55.3" height="49.5" stroke="black" fill="none"/>
<rect x="173.2" y="235.4" width="58.4" height="44.9" stroke="black" fill="none"/>
<rect x="188.9" y="230.7" width="70.8" height="49.6" stroke="black" fill="none"/>
<rect x="217.1" y="209.1" width="62.9" height="64.2" stroke="black" fill="none"/>
<rect x="237.4" y="171.9" width="50.4" height="79.8" stroke="black" fill="none"/>
<rect x="230.8" y="123.7" width="57.0" height="90.9" stroke="black" fill="none"/>
<rect x="191.2" y="89.3" width="82.2" height="77.0" stroke="black" fill="none"/>
<rect x="131.9" y="76.2" width="101.9" height="55.7" stroke="black" fill="none"/>
<rect x="64.1" y="76.2" width="110.4" height="59.0" stroke="black" fill="none"/>
<rect x="24.8" y="92.6" width="81.9" height="81.5" stroke="black" fill="none"/>
<rect x="12.2" y="131.4" width="55.3" height="88.6" stroke="black" fill="none"/>
<rect x="12.2" y="177.4" width="58.6" height="98.7" stroke="black" fill="none"/>
<rect x="28.2" y="233.5" width="81.1" height="72.4" stroke="black" fill="none"/>
<rect x="66.6" y="263.3" width="89.4" height="52.0" stroke="black" fill="none"/>
<rect x="113.4" y="272.1" width="59.0" height="43.2" stroke="black" fill="none"/>
<rect x="129.9" y="269.6" width="55.4" height="45.2" stroke="black" fill="none"/>
<rect x="142.7" y="265.2" width="53.4" height="47.0" stroke="black" fill="none"/>
<rect x="153.4" y="262.6" width="47.1" height="45.2" stroke="black" fill="none"/>
<rect x="157.9" y="258.5" width="45.5" height="46.7" stroke="black" fill="none"/>
<rect x="159.9" y="251.9" width="43.5" height="49.2" stroke="black" fill="none"/>
<rect x="157.0" y="247.6" width="45.6" height="47.0" stroke="black" fill="none"/>
<rect x="153.0" y="245.9" width="46.6" height="44.3" stroke="black" fill="none"/>
<rect x="148.2" y="245.9" width="47.4" height="43.4" stroke="black" fill="none"/>
<rect x="148.2" y="246.7" width="42.6" height="42.6" stroke="black" fill="none"/>
<rect x="114.5" y="207.2" width="55.5" height="46.4" stroke="black" fill="none"/>
<rect x="106.0" y="196.1" width="51.1" height="53.7" stroke="black" fill="none"/>
<rect x="102.9" y="177.9" width="45.7" height="60.7" stroke="black" fill="none"/>
<rect x="102.9" y="158.5" width="46.0" height="62.1" stroke="black" fill="none"/>
<rect x="106.3" y="146.2" width="51.5" height="54.9" stroke="black" fill="none"/>
<rect x="115.2" y="141.9" width="55.3" height="46.9" stroke="black" fill="none"/>
<rect x="127.9" y="141.9" width="50.8" height="44.0" stroke="black" fill="none"/>
<rect x="136.1" y="143.3" width="49.1" height="46.3" stroke="black" fill="none"/>
<rect x="142.7" y="147.0" width="48.1" height="47.8" stroke="black" fill="none"/>
<rect x="148.2" y="152.2" width="42.6" height="90.6" stroke="black" fill="none"/>
<rect x="142.7" y="200.2" width="48.1" height="48.4" stroke="black" fill="none"/>
<rect x="135.9" y="206.0" width="49.4" height="46.3" stroke="black" fill="none"/>
<rect x="127.4" y="209.7" width="51.1" height="43.9" stroke="black" fill="none"/>
<rect x="127.4" y="210.9" width="42.6" height="42.6" stroke="black" fill="none"/>
</svg>