<svg xmlns="http://www.w3.org/2000/svg" width="284" height="382">
<rect x="160.3" y="268.0" width="48.5" height="46.6" stroke="black" fill="none"/>
<rect x="166.2" y="262.0" width="44.7" height="48.6" stroke="black" fill="none"/>
<rect x="167.3" y="254.7" width="43.6" height="49.9" stroke="black" fill="none"/>
<rect x="113.6" y="70.7" width="96.4" height="226.6" stroke="black" fill="none"/>
<rect x="110.1" y="64.6" width="46.1" height="48.7" stroke="black" fill="none"/>
<rect x="104.4" y="61.5" width="48.3" height="45.8" stroke="black" fill="none"/>
<rect x="97.1" y="61.5" width="49.9" height="43.4" stroke="black" fill="none"/>
<rect x="91.2" y="62.2" width="48.5" height="46.6" stroke="black" fill="none"/>
<rect x="89.2" y="66.1" width="44.6" height="48.7" stroke="black" fill="none"/>
<rect x="89.2" y="72.2" width="43.8" height="50.4" stroke="black" fill="none"/>
<rect x="90.3" y="79.9" width="96.1" height="226.1" stroke="black" fill="none"/>
<rect x="143.8" y="263.4" width="45.9" height="48.8" stroke="black" fill="none"/>
<rect x="147.2" y="269.6" width="48.1" height="45.7" stroke="black" fill="none"/>
<rect x="152.7" y="271.9" width="50.3" height="43.4" stroke="black" fill="none"/>
<rect x="160.3" y="271.9" width="42.6" height="42.6" stroke="black" fill="none"/>
</svg>