<svg xmlns="http://www.w3.org/2000/svg" width="284" height="382">
<rect x="156.6" y="76.2" width="42.6" height="235.9" stroke="black" fill="none"/>
<rect x="155.0" y="67.4" width="44.2" height="51.4" stroke="black" fill="none"/>
<rect x="150.5" y="62.6" width="47.1" height="47.4" stroke="black" fill="none"/>
<rect x="143.3" y="61.2" width="49.8" height="44.1" stroke="black" fill="none"/>
<rect x="109.8" y="61.2" width="76.1" height="42.6" stroke="black" fill="none"/>
<rect x="104.2" y="61.2" width="48.3" height="43.8" stroke="black" fill="none"/>
<rect x="101.5" y="62.3" width="45.3" height="46.4" stroke="black" fill="none"/>
<rect x="100.8" y="66.1" width="43.3" height="49.4" stroke="black" fill="none"/>
<rect x="100.8" y="72.9" width="43.7" height="49.7" stroke="black" fill="none"/>
<rect x="101.9" y="80.0" width="45.8" height="46.1" stroke="black" fill="none"/>
<rect x="105.1" y="83.5" width="47.6" height="43.5" stroke="black" fill="none"/>
<rect x="110.1" y="84.4" width="55.4" height="42.6" stroke="black" fill="none"/>
<rect x="122.8" y="84.4" width="42.6" height="219.4" stroke="black" fill="none"/>
<rect x="110.1" y="261.2" width="55.4" height="42.6" stroke="black" fill="none"/>
<rect x="105.1" y="261.2" width="47.6" height="43.5" stroke="black" fill="none"/>
<rect x="101.9" y="262.1" width="45.8" height="46.1" stroke="black" fill="none"/>
<rect x="100.8" y="265.6" width="43.7" height="49.7" stroke="black" fill="none"/>
<rect x="100.8" y="272.7" width="43.3" height="49.4" stroke="black" fill="none"/>
<rect x="101.5" y="279.5" width="45.3" height="46.4" stroke="black" fill="none"/>
<rect x="104.2" y="283.3" width="48.3" height="43.8" stroke="black" fill="none"/>
<rect x="109.8" y="284.4" width="76.1" height="42.6" stroke="black" fill="none"/>
<rect x="143.3" y="283.0" width="49.8" height="44.1" stroke="black" fill="none"/>
<rect x="150.5" y="278.2" width="47.1" height="47.4" stroke="black" fill="none"/>
<rect x="155.0" y="269.4" width="44.2" height="51.4" stroke="black" fill="none"/>
<rect x="156.6" y="269.4" width="42.6" height="42.6" stroke="black" fill="none"/>
</svg>