<svg xmlns="http://www.w3.org/2000/svg" width="284" height="382">
<rect x="122.8" y="113.4" width="54.9" height="42.6" stroke="black" fill="none"/>
<rect x="135.1" y="112.7" width="47.3" height="43.3" stroke="black" fill="none"/>
<rect x="139.7" y="110.8" width="46.3" height="44.5" stroke="black" fill="none"/>
<rect x="143.4" y="107.9" width="45.8" height="45.5" stroke="black" fill="none"/>
<rect x="146.6" y="75.4" width="71.9" height="75.1" stroke="black" fill="none"/>
<rect x="175.8" y="67.3" width="46.3" height="50.8" stroke="black" fill="none"/>
<rect x="176.9" y="61.3" width="45.2" height="48.6" stroke="black" fill="none"/>
<rect x="171.1" y="58.9" width="48.5" height="44.9" stroke="black" fill="none"/>
<rect x="167.2" y="58.9" width="46.5" height="43.3" stroke="black" fill="none"/>
<rect x="164.0" y="59.6" width="45.8" height="44.3" stroke="black" fill="none"/>
<rect x="160.8" y="61.3" width="45.8" height="44.8" stroke="black" fill="none"/>
<rect x="128.8" y="63.4" width="74.6" height="64.6" stroke="black" fill="none"/>
<rect x="97.1" y="63.4" width="74.4" height="64.6" stroke="black" fill="none"/>
<rect x="93.8" y="61.2" width="45.9" height="44.9" stroke="black" fill="none"/>
<rect x="90.5" y="59.6" width="45.9" height="44.2" stroke="black" fill="none"/>
<rect x="86.6" y="58.9" width="46.6" height="43.2" stroke="black" fill="none"/>
<rect x="80.7" y="58.9" width="48.5" height="45.0" stroke="black" fill="none"/>
<rect x="78.0" y="61.3" width="45.2" height="48.7" stroke="black" fill="none"/>
<rect x="78.0" y="67.5" width="46.4" height="50.8" stroke="black" fill="none"/>
<rect x="81.8" y="75.7" width="71.9" height="74.9" stroke="black" fill="none"/>
<rect x="111.1" y="107.9" width="45.8" height="45.5" stroke="black" fill="none"/>
<rect x="114.2" y="110.8" width="46.4" height="44.5" stroke="black" fill="none"/>
<rect x="118.0" y="112.7" width="47.4" height="43.3" stroke="black" fill="none"/>
<rect x="122.8" y="113.4" width="42.6" height="42.6" stroke="black" fill="none"/>
</svg>