<svg xmlns="http://www.w3.org/2000/svg" width="284" height="382">
<rect x="122.2" y="73.9" width="59.9" height="51.1" stroke="black" fill="none"/>
<rect x="106.8" y="68.9" width="58.0" height="47.7" stroke="black" fill="none"/>
<rect x="93.3" y="68.9" width="56.1" height="43.5" stroke="black" fill="none"/>
<rect x="80.7" y="69.7" width="55.2" height="48.6" stroke="black" fill="none"/>
<rect x="68.2" y="75.7" width="55.1" height="50.9" stroke="black" fill="none"/>
<rect x="62.9" y="83.9" width="47.9" height="52.7" stroke="black" fill="none"/>
<rect x="62.9" y="94.0" width="49.0" height="50.8" stroke="black" fill="none"/>
<rect x="69.3" y="101.7" width="53.5" height="43.1" stroke="black" fill="none"/>
<rect x="80.2" y="95.7" width="51.9" height="48.6" stroke="black" fill="none"/>
<rect x="89.4" y="92.1" width="51.4" height="46.2" stroke="black" fill="none"/>
<rect x="98.2" y="92.1" width="51.7" height="42.7" stroke="black" fill="none"/>
<rect x="107.3" y="92.2" width="52.2" height="46.1" stroke="black" fill="none"/>
<rect x="116.9" y="95.7" width="57.9" height="50.1" stroke="black" fill="none"/>
<rect x="132.2" y="103.2" width="57.5" height="47.2" stroke="black" fill="none"/>
<rect x="147.1" y="107.6" width="56.7" height="42.8" stroke="black" fill="none"/>
<rect x="161.2" y="103.2" width="54.9" height="47.0" stroke="black" fill="none"/>
<rect x="173.4" y="94.4" width="57.9" height="51.4" stroke="black" fill="none"/>
<rect x="188.7" y="84.2" width="49.3" height="52.8" stroke="black" fill="none"/>
<rect x="190.5" y="75.1" width="47.4" height="51.7" stroke="black" fill="none"/>
<rect x="179.2" y="75.1" width="54.0" height="42.9" stroke="black" fill="none"/>
<rect x="168.9" y="75.4" width="52.9" height="48.6" stroke="black" fill="none"/>
<rect x="159.3" y="81.4" width="52.3" height="46.2" stroke="black" fill="none"/>
<rect x="149.1" y="85.0" width="52.8" height="42.9" stroke="black" fill="none"/>
<rect x="139.4" y="82.4" width="52.3" height="45.5" stroke="black" fill="none"/>
<rect x="139.4" y="82.4" width="42.6" height="42.6" stroke="black" fill="none"/>
</svg>