<svg xmlns="http://www.w3.org/2000/svg" width="284" height="382">
<rect x="190.9" y="148.7" width="46.8" height="51.8" stroke="black" fill="none"/>
<rect x="195.2" y="144.1" width="45.6" height="47.2" stroke="black" fill="none"/>
<rect x="198.1" y="141.9" width="46.2" height="44.8" stroke="black" fill="none"/>
<rect x="201.7" y="140.4" width="45.2" height="44.2" stroke="black" fill="none"/>
<rect x="204.3" y="138.1" width="44.1" height="44.9" stroke="black" fill="none"/>
<rect x="205.7" y="135.2" width="43.1" height="45.5" stroke="black" fill="none"/>
<rect x="205.6" y="131.7" width="43.2" height="46.1" stroke="black" fill="none"/>
<rect x="203.8" y="129.5" width="44.4" height="44.9" stroke="black" fill="none"/>
<rect x="200.4" y="128.7" width="46.0" height="43.4" stroke="black" fill="none"/>
<rect x="164.4" y="128.7" width="78.6" height="42.6" stroke="black" fill="none"/>
<rect x="161.3" y="128.7" width="45.7" height="43.4" stroke="black" fill="none"/>
<rect x="159.2" y="129.5" width="44.7" height="44.8" stroke="black" fill="none"/>
<rect x="158.4" y="131.7" width="43.4" height="45.9" stroke="black" fill="none"/>
<rect x="158.4" y="134.9" width="43.1" height="45.9" stroke="black" fill="none"/>
<rect x="159.0" y="138.2" width="44.3" height="45.1" stroke="black" fill="none"/>
<rect x="160.7" y="140.7" width="45.6" height="44.4" stroke="black" fill="none"/>
<rect x="163.7" y="142.4" width="46.2" height="44.8" stroke="black" fill="none"/>
<rect x="167.3" y="144.6" width="43.7" height="46.9" stroke="black" fill="none"/>
<rect x="165.9" y="148.9" width="45.0" height="50.9" stroke="black" fill="none"/>
<rect x="141.4" y="157.2" width="67.1" height="102.4" stroke="black" fill="none"/>
<rect x="112.2" y="157.2" width="71.9" height="102.4" stroke="black" fill="none"/>
<rect x="109.2" y="148.7" width="45.6" height="51.1" stroke="black" fill="none"/>
<rect x="109.2" y="144.8" width="44.1" height="46.5" stroke="black" fill="none"/>
<rect x="110.7" y="142.7" width="46.8" height="44.8" stroke="black" fill="none"/>
<rect x="114.9" y="140.8" width="45.3" height="44.5" stroke="black" fill="none"/>
<rect x="117.6" y="138.3" width="44.2" height="45.2" stroke="black" fill="none"/>
<rect x="119.2" y="134.9" width="43.1" height="46.0" stroke="black" fill="none"/>
<rect x="119.0" y="131.7" width="43.3" height="45.9" stroke="black" fill="none"/>
<rect x="117.2" y="129.5" width="44.5" height="44.8" stroke="black" fill="none"/>
<rect x="114.2" y="128.7" width="45.6" height="43.4" stroke="black" fill="none"/>
<rect x="56.9" y="128.7" width="99.9" height="42.6" stroke="black" fill="none"/>
<rect x="53.6" y="128.7" width="46.0" height="43.5" stroke="black" fill="none"/>
<rect x="51.7" y="129.6" width="44.4" height="45.0" stroke="black" fill="none"/>
<rect x="51.2" y="131.9" width="43.2" height="46.1" stroke="black" fill="none"/>
<rect x="51.2" y="135.4" width="43.1" height="46.2" stroke="black" fill="none"/>
<rect x="51.6" y="139.0" width="44.1" height="44.8" stroke="black" fill="none"/>
<rect x="53.1" y="141.3" width="45.2" height="44.1" stroke="black" fill="none"/>
<rect x="55.7" y="142.7" width="46.8" height="44.8" stroke="black" fill="none"/>
<rect x="59.8" y="144.9" width="46.3" height="46.9" stroke="black" fill="none"/>
<rect x="63.5" y="149.2" width="47.6" height="51.3" stroke="black" fill="none"/>
<rect x="68.4" y="157.9" width="95.4" height="142.1" stroke="black" fill="none"/>
<rect x="115.9" y="257.4" width="47.9" height="53.9" stroke="black" fill="none"/>
<rect x="110.4" y="268.7" width="48.2" height="52.6" stroke="black" fill="none"/>
<rect x="104.2" y="278.7" width="48.8" height="49.9" stroke="black" fill="none"/>
<rect x="97.9" y="285.9" width="48.8" height="45.4" stroke="black" fill="none"/>
<rect x="95.0" y="288.3" width="45.6" height="43.0" stroke="black" fill="none"/>
<rect x="92.3" y="286.7" width="45.3" height="44.2" stroke="black" fill="none"/>
<rect x="90.2" y="283.4" width="44.7" height="45.9" stroke="black" fill="none"/>
<rect x="90.2" y="276.2" width="44.4" height="49.9" stroke="black" fill="none"/>
<rect x="88.8" y="270.3" width="45.8" height="48.5" stroke="black" fill="none"/>
<rect x="83.8" y="266.2" width="47.7" height="46.7" stroke="black" fill="none"/>
<rect x="77.4" y="264.7" width="48.9" height="44.2" stroke="black" fill="none"/>
<rect x="68.2" y="264.7" width="51.9" height="45.0" stroke="black" fill="none"/>
<rect x="62.3" y="267.1" width="48.5" height="49.1" stroke="black" fill="none"/>
<rect x="60.2" y="273.5" width="44.7" height="52.0" stroke="black" fill="none"/>
<rect x="60.2" y="282.9" width="49.3" height="58.7" stroke="black" fill="none"/>
<rect x="66.9" y="299.0" width="56.8" height="51.8" stroke="black" fill="none"/>
<rect x="81.1" y="308.3" width="55.5" height="45.6" stroke="black" fill="none"/>
<rect x="93.9" y="307.3" width="55.3" height="46.5" stroke="black" fill="none"/>
<rect x="106.6" y="294.3" width="59.8" height="55.6" stroke="black" fill="none"/>
<rect x="123.8" y="270.4" width="58.8" height="66.5" stroke="black" fill="none"/>
<rect x="139.9" y="157.9" width="93.6" height="155.1" stroke="black" fill="none"/>
</svg>