<svg xmlns="http://www.w3.org/2000/svg" width="284" height="382">
<rect x="116.2" y="74.4" width="42.6" height="216.6" stroke="black" fill="none"/>
<rect x="116.2" y="248.4" width="43.5" height="49.8" stroke="black" fill="none"/>
<rect x="117.0" y="255.6" width="46.2" height="46.8" stroke="black" fill="none"/>
<rect x="120.6" y="259.8" width="50.5" height="44.0" stroke="black" fill="none"/>
<rect x="128.4" y="259.7" width="51.1" height="44.1" stroke="black" fill="none"/>
<rect x="137.0" y="255.4" width="46.1" height="46.9" stroke="black" fill="none"/>
<rect x="140.5" y="248.4" width="43.3" height="49.6" stroke="black" fill="none"/>
<rect x="141.2" y="74.4" width="42.6" height="216.6" stroke="black" fill="none"/>
<rect x="140.5" y="67.5" width="43.3" height="49.6" stroke="black" fill="none"/>
<rect x="137.0" y="62.8" width="46.1" height="47.2" stroke="black" fill="none"/>
<rect x="128.4" y="61.2" width="51.1" height="44.3" stroke="black" fill="none"/>
<rect x="120.6" y="61.2" width="50.5" height="44.2" stroke="black" fill="none"/>
<rect x="117.0" y="62.7" width="46.2" height="47.1" stroke="black" fill="none"/>
<rect x="116.2" y="67.2" width="43.5" height="49.8" stroke="black" fill="none"/>
<rect x="116.2" y="74.4" width="42.6" height="42.6" stroke="black" fill="none"/>
</svg>